<svg width="19" height="24" viewBox="0 0 19 24" fill="none" xmlns="http://www.w3.org/2000/svg">
<path d="M17.8125 6H14.25V4.8C14.25 3.52696 13.7496 2.30606 12.8588 1.40589C11.968 0.505713 10.7598 0 9.5 0C8.24022 0 7.03204 0.505713 6.14124 1.40589C5.25044 2.30606 4.75 3.52696 4.75 4.8V6H1.1875C0.872555 6 0.57051 6.12643 0.347811 6.35147C0.125111 6.57652 0 6.88174 0 7.2V20.4C0 21.3548 0.375334 22.2705 1.04343 22.9456C1.71153 23.6207 2.61767 24 3.5625 24H15.4375C16.3823 24 17.2885 23.6207 17.9566 22.9456C18.6247 22.2705 19 21.3548 19 20.4V7.2C19 6.88174 18.8749 6.57652 18.6522 6.35147C18.4295 6.12643 18.1274 6 17.8125 6ZM7.125 4.8C7.125 4.16348 7.37522 3.55303 7.82062 3.10294C8.26602 2.65286 8.87011 2.4 9.5 2.4C10.1299 2.4 10.734 2.65286 11.1794 3.10294C11.6248 3.55303 11.875 4.16348 11.875 4.8V6H7.125V4.8ZM16.625 20.4C16.625 20.7183 16.4999 21.0235 16.2772 21.2485C16.0545 21.4736 15.7524 21.6 15.4375 21.6H3.5625C3.24756 21.6 2.94551 21.4736 2.72281 21.2485C2.50011 21.0235 2.375 20.7183 2.375 20.4V8.4H4.75V9.6C4.75 9.91826 4.87511 10.2235 5.09781 10.4485C5.32051 10.6736 5.62256 10.8 5.9375 10.8C6.25244 10.8 6.55449 10.6736 6.77719 10.4485C6.99989 10.2235 7.125 9.91826 7.125 9.6V8.4H11.875V9.6C11.875 9.91826 12.0001 10.2235 12.2228 10.4485C12.4455 10.6736 12.7476 10.8 13.0625 10.8C13.3774 10.8 13.6795 10.6736 13.9022 10.4485C14.1249 10.2235 14.25 9.91826 14.25 9.6V8.4H16.625V20.4Z" fill="black"/>
</svg>
