<svg width="17" height="27" viewBox="0 0 17 27" fill="none" xmlns="http://www.w3.org/2000/svg">
<path d="M4.39179 26.3026L15.2765 15.2895C15.5171 15.0508 15.7081 14.7669 15.8385 14.4541C15.9688 14.1412 16.0359 13.8057 16.0359 13.4668C16.0359 13.1279 15.9688 12.7923 15.8385 12.4795C15.7081 12.1667 15.5171 11.8828 15.2765 11.6441L4.39179 0.75936C4.15314 0.518745 3.86921 0.327763 3.55638 0.197431C3.24355 0.0671003 2.908 0 2.56911 0C2.23021 0 1.89467 0.0671003 1.58184 0.197431C1.26901 0.327763 0.985079 0.518745 0.746428 0.75936C0.268293 1.24035 -8.2016e-05 1.891 -8.2016e-05 2.56921C-8.2016e-05 3.24741 0.268293 3.89806 0.746428 4.37905L9.83416 13.4668L0.746428 22.5545C0.272161 23.0327 0.00478935 23.6781 0.00195312 24.3515C0 24.6894 0.0647554 25.0243 0.192509 25.3371C0.320262 25.6498 0.508501 25.9343 0.746428 26.1742C0.976491 26.4234 1.25366 26.6246 1.56191 26.766C1.87016 26.9075 2.20339 26.9865 2.54235 26.9984C2.8813 27.0103 3.21926 26.955 3.5367 26.8356C3.85414 26.7161 4.14477 26.535 4.39179 26.3026Z" fill="white"/>
</svg>
