<svg width="42" height="58" viewBox="0 0 42 58" fill="none" xmlns="http://www.w3.org/2000/svg">
<path d="M34.3642 4.8013C31.9498 2.80723 29.1225 1.37958 26.0886 0.622496C23.0547 -0.134584 19.8908 -0.201992 16.8276 0.425191C12.749 1.25249 9.00701 3.27776 6.07644 6.24404C3.14587 9.21033 1.15882 12.9839 0.36738 17.086C-0.210574 20.1618 -0.105551 23.3277 0.674959 26.3579C1.45547 29.3882 2.89224 32.2082 4.88279 34.6168C6.73013 36.7102 7.78902 39.3871 7.87556 42.1827V50.0914C7.87556 52.1889 8.70532 54.2005 10.1823 55.6836C11.6593 57.1668 13.6625 58 15.7513 58H26.2522C28.341 58 30.3442 57.1668 31.8212 55.6836C33.2982 54.2005 34.1279 52.1889 34.1279 50.0914V42.6836C34.2161 39.5971 35.3453 36.632 37.3307 34.2741C40.8095 29.9528 42.4493 24.4274 41.8939 18.8988C41.3384 13.3701 38.6325 8.28502 34.3642 4.74857V4.8013ZM28.8775 50.0914C28.8775 50.7905 28.6009 51.4611 28.1086 51.9555C27.6162 52.4498 26.9485 52.7276 26.2522 52.7276H15.7513C15.055 52.7276 14.3873 52.4498 13.895 51.9555C13.4026 51.4611 13.126 50.7905 13.126 50.0914V47.4552H28.8775V50.0914ZM33.2616 31.0052C30.622 34.1492 29.0819 38.0756 28.8775 42.1827H23.627V34.2741C23.627 33.575 23.3504 32.9044 22.8581 32.41C22.3658 31.9157 21.698 31.6379 21.0018 31.6379C20.3055 31.6379 19.6378 31.9157 19.1454 32.41C18.6531 32.9044 18.3765 33.575 18.3765 34.2741V42.1827H13.126C13.0568 38.1443 11.5691 34.2603 8.92566 31.2161C7.18156 29.1177 6.00873 26.6012 5.52154 23.9121C5.03434 21.223 5.24941 18.4529 6.14576 15.8721C7.04211 13.2913 8.58916 10.9878 10.6361 9.18617C12.683 7.38454 15.1598 6.14629 17.8252 5.59216C20.1159 5.11855 22.4828 5.1631 24.7542 5.72257C27.0256 6.28205 29.1444 7.34241 30.9568 8.82667C32.7692 10.3109 34.2297 12.1818 35.2323 14.3036C36.2349 16.4253 36.7545 18.7446 36.7532 21.0931C36.7726 24.7043 35.5379 28.2094 33.2616 31.0052Z" fill="black"/>
</svg>
