<svg width="123" height="42" viewBox="0 0 123 42" fill="none" xmlns="http://www.w3.org/2000/svg">
<path d="M0 13.9978V21.7733C2.64581 21.7715 5.26601 22.2936 7.71069 23.3097C10.1554 24.3259 12.3765 25.8162 14.2471 27.6953C16.1172 29.5738 17.6003 31.804 18.6115 34.2584C19.6228 36.7129 20.1424 39.3434 20.1407 41.9996H27.8778C27.8708 34.5762 24.9316 27.4587 19.7052 22.2091C14.4788 16.9594 7.39202 14.0063 0 13.9978H0Z" fill="black"/>
<path d="M38.693 0H26.4314C32.6343 3.9476 37.8902 9.22509 41.822 15.4538V3.14005C41.8214 2.30706 41.4915 1.50838 40.9047 0.919565C40.318 0.330754 39.5225 -2.0612e-07 38.693 0Z" fill="black"/>
<path d="M7.7041 0H0V7.00074C9.24025 7.01039 18.0993 10.7009 24.6332 17.2624C31.1672 23.8239 34.8423 32.7205 34.8522 42H41.8222V34.2632C40.2463 25.7598 36.1432 17.9351 30.0531 11.8191C23.963 5.70313 16.1714 1.5826 7.7041 0Z" fill="black"/>
<path d="M60.7868 4.62329H55.876V29.4807H60.7868V4.62329Z" fill="black"/>
<path d="M78.8428 15.3929C78.0253 14.6466 77.0683 14.0706 76.0275 13.6985C73.7916 12.9101 71.355 12.9101 69.1191 13.6985C68.0778 14.0704 67.1205 14.6463 66.3027 15.3929C65.5007 16.1354 64.86 17.0362 64.4207 18.0389C63.9667 19.1327 63.7329 20.3061 63.7329 21.4912C63.7329 22.6763 63.9667 23.8496 64.4207 24.9435C64.8584 25.949 65.4993 26.8523 66.3027 27.5961C67.1191 28.3432 68.0759 28.9189 69.1169 29.2894C71.3526 30.0792 73.7897 30.0792 76.0253 29.2894C77.0667 28.9189 78.0238 28.3432 78.8406 27.5961C79.6437 26.852 80.2846 25.9488 80.7226 24.9435C81.1766 23.8496 81.4104 22.6763 81.4104 21.4912C81.4104 20.3061 81.1766 19.1327 80.7226 18.0389C80.2837 17.0365 79.6438 16.1358 78.8428 15.3929ZM75.4706 24.4185C74.6754 25.1378 73.643 25.5359 72.5728 25.5359C71.5025 25.5359 70.4701 25.1378 69.6749 24.4185C69.0065 23.5899 68.6418 22.5559 68.6418 21.4895C68.6418 20.4232 69.0065 19.3892 69.6749 18.5606C70.4701 17.8412 71.5025 17.4431 72.5728 17.4431C73.643 17.4431 74.6754 17.8412 75.4706 18.5606C76.139 19.3892 76.5037 20.4232 76.5037 21.4895C76.5037 22.5559 76.139 23.5899 75.4706 24.4185Z" fill="black"/>
<path d="M96.4732 15.6057H96.4115C96.1844 15.2855 95.9207 14.9932 95.6257 14.7348C95.2684 14.4173 94.8727 14.1463 94.4481 13.9279C93.3747 13.3748 92.1832 13.0929 90.9768 13.1067C89.9197 13.0881 88.8742 13.331 87.9326 13.8141C87.0553 14.2703 86.2806 14.9027 85.6566 15.672C85.0203 16.465 84.5322 17.367 84.216 18.3346C83.8796 19.3314 83.7082 20.3768 83.7086 21.4293C83.6962 22.5591 83.8848 23.682 84.2655 24.7451C84.6104 25.7153 85.1481 26.605 85.8459 27.3602C86.5411 28.0992 87.3849 28.6812 88.3211 29.0678C89.3391 29.4845 90.4302 29.6912 91.5293 29.6757C92.3424 29.6616 93.1462 29.5002 93.9022 29.1993C94.75 28.8764 95.4844 28.3102 96.0142 27.5713H96.0803V29.1186C96.0987 29.6348 96.014 30.1494 95.8312 30.6321C95.6484 31.1148 95.3712 31.5559 95.016 31.9293C94.5653 32.3298 94.0383 32.6343 93.467 32.8243C92.8956 33.0142 92.2919 33.0858 91.6922 33.0346C90.7414 33.0453 89.7991 32.8547 88.9265 32.4753C88.0583 32.0857 87.2482 31.5769 86.5195 30.9633L83.8021 35.0362C84.9128 35.9347 86.2111 36.5697 87.6003 36.8942C88.9748 37.2116 90.3808 37.3714 91.7913 37.3705C94.8905 37.3705 97.1984 36.5869 98.7151 35.0196C100.232 33.4524 100.99 31.1564 100.991 28.1317V13.5013H96.4787L96.4732 15.6057ZM96.1782 22.8883C95.9845 23.3562 95.7006 23.781 95.3429 24.1383C94.9787 24.5028 94.5517 24.7979 94.0827 25.0093C93.5957 25.2265 93.0687 25.3387 92.5358 25.3387C92.0029 25.3387 91.476 25.2265 90.9889 25.0093C90.5262 24.7949 90.1048 24.5 89.7442 24.1383C89.3849 23.7779 89.0999 23.35 88.9055 22.8789C88.711 22.4078 88.6109 21.9028 88.6109 21.3929C88.6109 20.8829 88.711 20.3779 88.9055 19.9069C89.0999 19.4358 89.3849 19.0078 89.7442 18.6474C90.105 18.2857 90.5263 17.9905 90.9889 17.7753C91.4762 17.5589 92.0031 17.4471 92.5358 17.4471C93.0686 17.4471 93.5955 17.5589 94.0827 17.7753C94.5516 17.9875 94.9784 18.283 95.3429 18.6474C95.8831 19.1927 96.2507 19.8863 96.3993 20.6409C96.548 21.3956 96.471 22.1775 96.1782 22.8883Z" fill="black"/>
<path d="M119.44 15.3929C118.622 14.6466 117.666 14.0706 116.625 13.6985C114.389 12.9101 111.952 12.9101 109.716 13.6985C108.675 14.0704 107.718 14.6463 106.9 15.3929C106.098 16.1354 105.457 17.0362 105.018 18.0389C104.564 19.1327 104.33 20.3061 104.33 21.4912C104.33 22.6763 104.564 23.8496 105.018 24.9435C105.456 25.949 106.096 26.8523 106.9 27.5961C107.717 28.3435 108.674 28.9192 109.716 29.2894C111.952 30.0792 114.389 30.0792 116.625 29.2894C117.666 28.9189 118.623 28.3432 119.44 27.5961C120.243 26.8523 120.884 25.949 121.322 24.9435C121.776 23.8496 122.01 22.6763 122.01 21.4912C122.01 20.3061 121.776 19.1327 121.322 18.0389C120.883 17.0362 120.242 16.1354 119.44 15.3929ZM116.068 24.4185C115.273 25.1378 114.24 25.5359 113.17 25.5359C112.1 25.5359 111.067 25.1378 110.272 24.4185C109.604 23.5899 109.239 22.5559 109.239 21.4895C109.239 20.4232 109.604 19.3892 110.272 18.5606C111.067 17.8412 112.1 17.4431 113.17 17.4431C114.24 17.4431 115.273 17.8412 116.068 18.5606C116.736 19.3892 117.101 20.4232 117.101 21.4895C117.101 22.5559 116.736 23.5899 116.068 24.4185Z" fill="black"/>
</svg>
