<svg width="58" height="58" viewBox="0 0 58 58" fill="none" xmlns="http://www.w3.org/2000/svg">
<path d="M57.0983 15.6037L42.353 0.843265C41.8102 0.303159 41.076 0 40.3107 0C39.5453 0 38.8111 0.303159 38.2683 0.843265C37.9968 1.11285 37.7813 1.43358 37.6342 1.78696C37.4872 2.14033 37.4114 2.51936 37.4114 2.90218C37.4114 3.285 37.4872 3.66403 37.6342 4.01741C37.7813 4.37079 37.9968 4.69152 38.2683 4.9611L43.4538 10.2679L27.7525 26.1013L24.8556 23.2014C24.0482 22.3903 23.0888 21.7468 22.0324 21.3077C20.976 20.8686 19.8435 20.6426 18.6996 20.6426C17.5558 20.6426 16.4232 20.8686 15.3669 21.3077C14.3105 21.7468 13.3511 22.3903 12.5437 23.2014L2.54932 33.119C1.73862 33.9295 1.09602 34.8925 0.658515 35.9525C0.221007 37.0126 -0.00278152 38.1488 2.60936e-05 39.2957V49.3003C2.60936e-05 51.6076 0.915658 53.8204 2.54549 55.4519C4.17533 57.0834 6.38585 58 8.69079 58H18.6852C19.8309 58.0028 20.966 57.7788 22.0249 57.3408C23.0839 56.9029 24.0459 56.2596 24.8556 55.4481L34.7631 45.5015C35.5733 44.6932 36.2161 43.7329 36.6548 42.6754C37.0934 41.618 37.3192 40.4842 37.3192 39.3392C37.3192 38.1942 37.0934 37.0605 36.6548 36.003C36.2161 34.9456 35.5733 33.9852 34.7631 33.177L31.8661 30.2771L47.6833 14.5017L52.9847 19.8085C53.254 20.0803 53.5744 20.296 53.9274 20.4433C54.2804 20.5905 54.6591 20.6663 55.0415 20.6663C55.4239 20.6663 55.8026 20.5905 56.1556 20.4433C56.5086 20.296 56.829 20.0803 57.0983 19.8085C57.3832 19.5376 57.61 19.2115 57.7651 18.8501C57.9201 18.4886 58 18.0994 58 17.7061C58 17.3128 57.9201 16.9235 57.7651 16.5621C57.61 16.2007 57.3832 15.8746 57.0983 15.6037ZM30.7074 41.3836L20.742 51.3592C20.4713 51.628 20.1503 51.8406 19.7973 51.985C19.4444 52.1293 19.0664 52.2024 18.6852 52.2002H8.69079C7.92248 52.2002 7.18563 51.8947 6.64236 51.3509C6.09908 50.807 5.79387 50.0694 5.79387 49.3003V39.2957C5.79166 38.9141 5.86474 38.5358 6.0089 38.1824C6.15307 37.8291 6.36548 37.5078 6.63397 37.2368L16.5994 27.2612C17.1422 26.7211 17.8764 26.4179 18.6417 26.4179C19.407 26.4179 20.1413 26.7211 20.684 27.2612L23.581 30.1611L21.0027 32.771C20.4631 33.3143 20.1603 34.0493 20.1603 34.8154C20.1603 35.5815 20.4631 36.3165 21.0027 36.8598C21.287 37.1429 21.6269 37.3638 22.0009 37.5085C22.3749 37.6533 22.7748 37.7188 23.1754 37.7008C23.9354 37.6976 24.6637 37.3956 25.2032 36.8598L27.8105 34.2789L30.7074 37.1788C30.9923 37.4497 31.2191 37.7758 31.3741 38.1372C31.5291 38.4987 31.6091 38.8879 31.6091 39.2812C31.6091 39.6746 31.5291 40.0638 31.3741 40.4252C31.2191 40.7866 30.9923 41.1127 30.7074 41.3836Z" fill="black"/>
</svg>
