<svg width="23" height="24" viewBox="0 0 23 24" fill="none" xmlns="http://www.w3.org/2000/svg">
<path d="M15.7704 12.8512C16.9034 11.9261 17.7304 10.6576 18.1364 9.22201C18.5423 7.78646 18.507 6.25531 18.0353 4.84156C17.5636 3.42782 16.6791 2.2018 15.5047 1.33405C14.3303 0.466309 12.9245 0 11.4829 0C10.0412 0 8.6354 0.466309 7.46102 1.33405C6.28663 2.2018 5.40208 3.42782 4.93041 4.84156C4.45874 6.25531 4.42341 7.78646 4.82934 9.22201C5.23527 10.6576 6.06227 11.9261 7.19529 12.8512C5.25384 13.6584 3.55986 14.9972 2.29393 16.7249C1.02801 18.4525 0.237602 20.5043 0.00697087 22.6615C-0.00972338 22.819 0.00363851 22.9784 0.0462933 23.1305C0.0889481 23.2827 0.160061 23.4246 0.255571 23.5482C0.448462 23.7979 0.72902 23.9578 1.03552 23.9928C1.34203 24.0277 1.64937 23.9349 1.88995 23.7348C2.13052 23.5346 2.28461 23.2435 2.31833 22.9254C2.5721 20.581 3.64931 18.4158 5.34415 16.8434C7.03899 15.2711 9.23264 14.4019 11.506 14.4019C13.7793 14.4019 15.973 15.2711 17.6678 16.8434C19.3626 18.4158 20.4398 20.581 20.6936 22.9254C20.725 23.2201 20.8605 23.4922 21.074 23.6894C21.2874 23.8865 21.5636 23.9946 21.8493 23.9928H21.9764C22.2794 23.9566 22.5563 23.7976 22.7467 23.5505C22.9372 23.3034 23.0259 22.9882 22.9934 22.6735C22.7617 20.5102 21.967 18.4531 20.6946 16.7228C19.4222 14.9925 17.72 13.6541 15.7704 12.8512ZM11.4829 11.9997C10.5686 11.9997 9.67482 11.7183 8.91462 11.1912C8.15442 10.6641 7.56191 9.91484 7.21203 9.03827C6.86214 8.16168 6.7706 7.19712 6.94897 6.26655C7.12734 5.33598 7.56761 4.48119 8.21411 3.81029C8.8606 3.13938 9.68429 2.68249 10.581 2.49739C11.4777 2.31228 12.4072 2.40728 13.2519 2.77038C14.0966 3.13347 14.8186 3.74834 15.3265 4.53724C15.8345 5.32614 16.1056 6.25364 16.1056 7.20244C16.1056 8.47475 15.6185 9.69494 14.7516 10.5946C13.8847 11.4943 12.7089 11.9997 11.4829 11.9997Z" fill="black"/>
</svg>
